<svg width="40" height="46" viewBox="0 0 40 46" fill="none" xmlns="http://www.w3.org/2000/svg">
<path d="M14.1406 8.99635L13.8151 8.04891C15.4245 7.49475 17.1967 7.31599 18.9869 7.60201C20.0176 7.7629 20.9761 8.06679 21.8621 8.49582L21.4281 9.38963C20.6144 9.01423 19.7464 8.72821 18.8242 8.5852C17.1967 8.35281 15.5873 8.51369 14.1406 8.99635ZM9.14966 22.8683C9.07732 23.3152 8.64333 23.6191 8.19125 23.5475C7.73917 23.476 7.43175 23.047 7.50409 22.6001C7.52217 22.5107 7.55834 22.4213 7.5945 22.3498L7.55834 22.3677C6.72651 20.5443 6.40101 18.4707 6.74459 16.3435C7.25092 13.2151 9.11349 10.641 11.6271 9.08573L12.1695 9.92591C9.89107 11.3381 8.20933 13.662 7.75725 16.4865C7.44984 18.3992 7.73917 20.2762 8.48058 21.9029C8.93266 22.0102 9.22199 22.4213 9.14966 22.8683ZM8.40824 22.2426C8.137 22.2068 7.88383 22.3856 7.82958 22.6537C7.79342 22.9219 7.97425 23.1721 8.2455 23.2258C8.51674 23.2615 8.76991 23.0828 8.82416 22.8146C8.86032 22.5465 8.67949 22.2962 8.40824 22.2426ZM11.2473 20.6159C11.1388 21.2415 10.5421 21.6705 9.90915 21.5633C9.27624 21.456 8.84224 20.8661 8.95074 20.2405C8.98691 20.0259 9.07732 19.8293 9.22199 19.6684C9.02307 18.721 8.98691 17.7199 9.14966 16.7189C9.87298 12.2856 14.1044 9.26449 18.5891 9.97954C19.3847 10.1047 20.1442 10.3549 20.8314 10.6767L20.2889 11.8029C19.6922 11.5169 19.0592 11.3203 18.3902 11.213C14.5927 10.6052 11.0122 13.1615 10.3974 16.9155C10.2708 17.7378 10.2889 18.5601 10.4336 19.3288C10.9761 19.5075 11.3377 20.0438 11.2473 20.6159ZM10.1985 19.7399C9.81873 19.6863 9.45707 19.9366 9.40282 20.312C9.34857 20.6874 9.60174 21.0449 9.98148 21.0985C10.3612 21.1521 10.7229 20.9019 10.7771 20.5265C10.8495 20.169 10.5782 19.8114 10.1985 19.7399ZM13.6162 14.5558C14.1406 14.0196 14.7735 13.6084 15.4788 13.3403L15.2799 12.8219C14.5023 13.1257 13.797 13.5905 13.2184 14.1804L13.6162 14.5558ZM12.278 17.2194C12.3685 16.6116 12.5855 16.0574 12.8748 15.5569L12.3865 15.2888C12.061 15.8429 11.8441 16.4686 11.7356 17.1479C11.7175 17.3088 11.6994 17.4697 11.6813 17.6305L12.2419 17.6663C12.2419 17.5054 12.2419 17.3624 12.278 17.2194ZM18.1732 12.518C17.6488 12.4286 17.1243 12.4286 16.6361 12.4822L16.7084 13.0364C17.1605 12.9827 17.6307 12.9827 18.1008 13.0721C18.3721 13.1079 18.6252 13.1794 18.8784 13.2688L19.0592 12.7325C18.7699 12.6431 18.4806 12.5716 18.1732 12.518ZM13.2365 20.7231C13.1822 21.0449 12.8748 21.2594 12.5674 21.2058C12.2419 21.1521 12.0249 20.8482 12.0791 20.5444C12.0972 20.455 12.1334 20.3835 12.1695 20.312C11.9706 19.8829 11.826 19.4539 11.7536 18.9891L12.3142 18.8997C12.3865 19.3109 12.5131 19.7042 12.6759 20.0617C12.694 20.0617 12.7301 20.0617 12.7482 20.0617C13.0556 20.1153 13.2726 20.4192 13.2365 20.7231ZM12.694 20.2941C12.495 20.2583 12.3142 20.4013 12.2961 20.5801C12.26 20.7767 12.4046 20.9555 12.5855 20.9734C12.7844 21.0091 12.9652 20.8661 12.9833 20.6874C13.0195 20.5086 12.8929 20.3298 12.694 20.2941ZM27.6487 12.661C27.3594 14.1626 26.6903 15.6105 25.6596 16.8619C25.0629 17.5769 24.3938 18.1847 23.6524 18.6852L24.231 19.5075C25.0448 18.9534 25.8043 18.2741 26.4553 17.4875C27.6126 16.0932 28.3359 14.4843 28.6614 12.8397L27.6487 12.661ZM17.8838 0.308538C18.1732 -0.0489855 18.6976 -0.102613 19.0592 0.183405C19.1316 0.237034 19.1858 0.308538 19.2401 0.397918V0.362167C21.2473 0.558804 23.2365 1.32748 24.9182 2.68607C27.3956 4.6882 28.7337 7.56626 28.8242 10.4979L27.8115 10.5337C27.7211 7.88803 26.5095 5.27811 24.2672 3.47262C22.7482 2.25704 20.9761 1.55987 19.1497 1.38111C18.8603 1.72075 18.3359 1.77438 17.9923 1.48836C17.6488 1.18447 17.5945 0.648185 17.8838 0.308538ZM18.2274 1.20235C18.4444 1.38111 18.7518 1.34535 18.9327 1.13084C19.1135 0.916327 19.0773 0.612433 18.8603 0.433672C18.6433 0.25491 18.3359 0.290661 18.1551 0.505175C17.9742 0.719689 18.0104 1.04146 18.2274 1.20235ZM22.8205 17.559L22.0972 16.5222C22.6397 16.1647 23.128 15.7178 23.562 15.1815C26.0032 12.2319 25.5511 7.90591 22.5674 5.49262C21.9164 4.95634 21.1931 4.58094 20.4336 4.3128C20.0176 4.6882 19.3667 4.72395 18.9146 4.34855C18.4263 3.95527 18.3359 3.22235 18.7518 2.73969C19.1497 2.25704 19.8911 2.16766 20.3793 2.57881C20.5601 2.72182 20.6686 2.90058 20.741 3.09722C21.6632 3.40111 22.5674 3.86589 23.363 4.50943C26.8893 7.35174 27.4137 12.4822 24.5384 15.9681C24.0502 16.6116 23.4715 17.13 22.8205 17.559ZM20.1081 2.95421C19.8187 2.72182 19.3667 2.75757 19.1316 3.04359C18.8965 3.32961 18.9327 3.77651 19.222 4.0089C19.5113 4.24129 19.9634 4.20554 20.1985 3.91952C20.4516 3.6335 20.4155 3.1866 20.1081 2.95421ZM23.7428 11.7314C23.8694 10.9091 23.8151 10.0689 23.5981 9.28237L23.0556 9.44325C23.2726 10.1583 23.3088 10.9091 23.2003 11.642L23.7428 11.7314ZM21.7536 6.52944C21.6271 6.42218 21.5005 6.3328 21.3558 6.24342L21.0484 6.7082C21.175 6.79758 21.2835 6.86909 21.4101 6.95847C21.8983 7.35175 22.278 7.79865 22.5674 8.29918L23.0556 8.01316C22.712 7.459 22.278 6.95847 21.7536 6.52944ZM21.5547 14.5737L21.9345 14.9849C22.1515 14.7882 22.3685 14.5916 22.5493 14.3592C22.8929 13.948 23.146 13.519 23.345 13.0542L22.8205 12.8397C22.6397 13.2509 22.4046 13.6442 22.0972 14.0196C21.9345 14.2162 21.7536 14.4128 21.5547 14.5737ZM17.7573 5.18873C17.9562 4.93846 18.3359 4.90271 18.5891 5.09935C18.6614 5.15298 18.7157 5.22448 18.7518 5.29599C19.222 5.34961 19.6741 5.43899 20.1261 5.59988L19.9272 6.11829C19.5294 5.97528 19.1316 5.8859 18.7157 5.85015C18.6976 5.86802 18.6976 5.90378 18.6795 5.92165C18.4806 6.17192 18.1008 6.20767 17.8477 6.01103C17.5945 5.8144 17.5403 5.439 17.7573 5.18873ZM17.9923 5.83227C18.137 5.9574 18.3721 5.93953 18.4806 5.77864C18.6072 5.63563 18.5891 5.40324 18.4263 5.29599C18.2636 5.18873 18.0466 5.18873 17.9381 5.34962C17.8115 5.49262 17.8296 5.70714 17.9923 5.83227ZM15.0086 18.5601C14.6831 17.6842 14.4842 16.8082 14.4119 15.9323L13.3992 16.0038C13.4715 16.9691 13.6885 17.9523 14.0683 18.9176C14.7193 20.598 15.75 22.0281 17.0339 23.1185L17.703 22.3677C16.5276 21.3845 15.5873 20.0796 15.0086 18.5601ZM32.911 21.2415C32.8205 21.2773 32.7301 21.2951 32.6397 21.2951L32.6578 21.313C31.4824 22.9398 29.8187 24.2447 27.7934 25.0134C24.8097 26.1396 21.6271 25.8357 19.005 24.4592L19.4752 23.5833C21.8441 24.8346 24.7193 25.1028 27.4318 24.0838C29.2582 23.3867 30.7591 22.2068 31.826 20.7589C31.6813 20.3298 31.8802 19.8651 32.3142 19.7042C32.7482 19.5433 33.2184 19.7578 33.3992 20.1868C33.562 20.6159 33.345 21.0806 32.911 21.2415ZM33.0918 20.2941C33.0014 20.0438 32.712 19.9187 32.4408 20.0081C32.1876 20.0974 32.0611 20.3835 32.1515 20.6516C32.2419 20.9019 32.5312 21.027 32.8025 20.9376C33.0556 20.8482 33.1822 20.5622 33.0918 20.2941ZM16.3106 18.0774C16.0213 17.3266 15.8585 16.558 15.8043 15.8072L17.0701 15.7178C17.1243 16.3613 17.269 17.0049 17.5041 17.6484C18.8784 21.2058 22.8929 22.9934 26.4914 21.6348C27.2871 21.3309 27.9923 20.9197 28.5891 20.4013C28.4625 19.8472 28.7699 19.293 29.3124 19.0785C29.9091 18.8461 30.5782 19.15 30.8133 19.7399C31.0484 20.3298 30.741 20.9913 30.1442 21.2236C29.9272 21.2951 29.7102 21.313 29.5113 21.2773C28.788 21.9208 27.92 22.4571 26.9616 22.8146C22.694 24.3877 17.9381 22.2783 16.3106 18.0774ZM29.0773 20.3656C29.222 20.7231 29.6198 20.9019 29.9815 20.7589C30.3431 20.6159 30.524 20.2226 30.3793 19.8651C30.2346 19.5075 29.8368 19.3288 29.4752 19.4718C29.1135 19.6148 28.9327 20.0081 29.0773 20.3656ZM20.4697 19.4897C21.1207 20.0081 21.8802 20.3835 22.694 20.5801L22.8205 20.0438C22.0972 19.8651 21.4101 19.5254 20.8133 19.0606L20.4697 19.4897ZM25.8224 19.8651C25.2437 20.0796 24.6469 20.1868 24.0683 20.1868V20.741C24.7193 20.741 25.3703 20.6159 26.0213 20.3835C26.184 20.3298 26.3287 20.2583 26.4733 20.1868L26.2202 19.6863C26.0936 19.7399 25.9489 19.8114 25.8224 19.8651ZM19.4932 18.4886L19.9453 18.1489C19.6741 17.7914 19.439 17.3803 19.2762 16.9512C19.1858 16.701 19.1135 16.4507 19.0592 16.1826L18.5167 16.2898C18.571 16.5758 18.6614 16.8619 18.7699 17.1479C18.9327 17.6484 19.1858 18.0953 19.4932 18.4886ZM29.1858 17.6305C29.2943 17.9344 29.1497 18.2741 28.8422 18.3813C28.7518 18.4171 28.6795 18.4171 28.5891 18.4171C28.3178 18.7925 28.0104 19.1321 27.6307 19.436L27.269 19.007C27.5945 18.7389 27.8657 18.435 28.1008 18.1132C28.0827 18.0953 28.0827 18.0596 28.0647 18.0417C27.9562 17.7378 28.1008 17.3981 28.4082 17.2909C28.7157 17.1658 29.0592 17.3266 29.1858 17.6305ZM28.4987 17.5054C28.3178 17.5769 28.2274 17.7735 28.2997 17.9523C28.3721 18.1311 28.571 18.2204 28.7518 18.1489C28.9327 18.0774 29.0231 17.8808 28.9507 17.702C28.8784 17.5233 28.6795 17.4339 28.4987 17.5054Z" fill="url(#paint0_radial_1348_12594)"/>
<path d="M3.32778 39.7434C3.83411 39.7434 4.28618 39.8149 4.7021 39.9579C5.11801 40.1009 5.46159 40.3154 5.76901 40.5836C6.05834 40.8517 6.29342 41.1735 6.45617 41.5668C6.61892 41.9422 6.69125 42.3712 6.69125 42.836V45.8034H5.1361V45.2314C4.97335 45.4101 4.73827 45.571 4.41277 45.714C4.08727 45.8571 3.68944 45.9107 3.21928 45.9107C2.74911 45.9107 2.31512 45.8392 1.93537 45.6962C1.53754 45.5532 1.19396 45.3386 0.922714 45.0705C0.633383 44.8024 0.416385 44.4806 0.253637 44.0873C0.090888 43.7119 0.0185547 43.2829 0.0185547 42.8181C0.0185547 42.3533 0.090888 41.9422 0.253637 41.5489C0.416385 41.1735 0.633383 40.8517 0.922714 40.5836C1.21204 40.3154 1.57371 40.1009 1.97154 39.9579C2.38745 39.8149 2.83953 39.7434 3.32778 39.7434ZM5.0276 42.7466C5.0276 42.1924 4.86485 41.7455 4.55743 41.4416C4.25002 41.1377 3.83411 40.9769 3.30969 40.9769C2.78528 40.9769 2.36937 41.1377 2.06195 41.4416C1.75454 41.7455 1.59179 42.1924 1.59179 42.7466C1.59179 43.3008 1.75454 43.7477 2.06195 44.0516C2.36937 44.3555 2.78528 44.5163 3.30969 44.5163C3.83411 44.5163 4.25002 44.3555 4.55743 44.0516C4.88293 43.7298 5.0276 43.3008 5.0276 42.7466Z" fill="#00652E"/>
<path d="M21.0309 39.7434C21.5372 39.7434 21.9893 39.8149 22.4052 39.9579C22.8211 40.1009 23.1647 40.3154 23.4721 40.5836C23.7615 40.8517 23.9965 41.1735 24.1593 41.5668C24.322 41.9422 24.3944 42.3712 24.3944 42.836V45.8034H22.8392V45.2314C22.6765 45.4101 22.4414 45.571 22.1159 45.714C21.7904 45.8571 21.3926 45.9107 20.9224 45.9107C20.4522 45.9107 20.0182 45.8392 19.6385 45.6962C19.2407 45.5532 18.8971 45.3386 18.6258 45.0705C18.3365 44.8024 18.1195 44.4806 17.9568 44.0873C17.794 43.7119 17.7217 43.2829 17.7217 42.8181C17.7217 42.3533 17.794 41.9422 17.9568 41.5489C18.1195 41.1735 18.3365 40.8517 18.6258 40.5836C18.9152 40.3154 19.2768 40.1009 19.6747 39.9579C20.0906 39.8149 20.5427 39.7434 21.0309 39.7434ZM22.7307 42.7466C22.7307 42.1924 22.568 41.7455 22.2606 41.4416C21.9531 41.1377 21.5372 40.9769 21.0128 40.9769C20.4884 40.9769 20.0725 41.1377 19.7651 41.4416C19.4577 41.7455 19.2949 42.1924 19.2949 42.7466C19.2949 43.3008 19.4577 43.7477 19.7651 44.0516C20.0725 44.3555 20.4884 44.5163 21.0128 44.5163C21.5372 44.5163 21.9531 44.3555 22.2606 44.0516C22.568 43.7298 22.7307 43.3008 22.7307 42.7466Z" fill="#00652E"/>
<path d="M13.1471 40.6015C12.8578 40.3334 12.4961 40.1188 12.0983 39.958C11.6824 39.815 11.2484 39.7256 10.7782 39.7256C10.308 39.7256 9.89213 39.7971 9.54855 39.9401C9.20497 40.0831 8.96989 40.244 8.80714 40.4227V38.4742H7.21582V42.8718C7.21582 43.3544 7.30624 43.8013 7.48707 44.1946C7.6679 44.5879 7.92106 44.9097 8.22848 45.1778C8.53589 45.4459 8.89756 45.6426 9.33155 45.7856C9.76555 45.9286 10.2176 46.0001 10.7059 46.0001C11.2122 46.0001 11.6643 45.9286 12.0802 45.7677C12.4961 45.6247 12.8397 45.4102 13.1471 45.1242C13.4545 44.856 13.6896 44.5164 13.8523 44.141C14.0151 43.7656 14.1055 43.3366 14.1055 42.8718C14.1055 42.407 14.0151 41.978 13.8523 41.5847C13.6715 41.2093 13.4364 40.8875 13.1471 40.6015ZM12.0983 44.141C11.7728 44.4628 11.3569 44.6236 10.8144 44.6236C10.2719 44.6236 9.85597 44.4628 9.53047 44.141C9.20497 43.8192 9.04222 43.3902 9.04222 42.8181C9.04222 42.2461 9.20497 41.7992 9.53047 41.4953C9.85597 41.1735 10.29 41.0127 10.8144 41.0127C11.3569 41.0127 11.7728 41.1735 12.0983 41.4953C12.4238 41.8171 12.5684 42.2461 12.5684 42.8181C12.5865 43.3902 12.4238 43.8192 12.0983 44.141Z" fill="#00652E"/>
<path d="M14.6113 42.5142C14.6113 41.5847 14.8826 40.9054 15.4432 40.4406C16.0037 39.9758 16.7451 39.7434 17.6855 39.7434V41.0841C17.2153 41.0841 16.8356 41.2093 16.5643 41.4416C16.2931 41.674 16.1484 42.0494 16.1484 42.5321V45.8213H14.6113V42.5142Z" fill="#00652E"/>
<path d="M36.9268 43.122C36.9268 44.0516 37.198 44.7309 37.7586 45.1957C38.3192 45.6605 39.0606 45.8928 40.0009 45.8928V44.5521C39.5307 44.5521 39.151 44.427 38.8797 44.1946C38.6085 43.9622 38.4638 43.5868 38.4638 43.1042V38.4742H36.9268V43.122Z" fill="#00652E"/>
<path d="M26.4927 41.4596C26.4927 41.6026 26.5831 41.7098 26.7458 41.7992C26.9086 41.8707 27.1256 41.9601 27.3788 42.0137C27.6319 42.0852 27.9032 42.1567 28.2106 42.2282C28.4999 42.2998 28.7712 42.407 29.0424 42.55C29.2956 42.693 29.5126 42.8718 29.6753 43.1042C29.8381 43.3366 29.9285 43.6405 29.9285 44.0159C29.9285 44.3198 29.8742 44.5879 29.7477 44.8203C29.6211 45.0527 29.4583 45.2493 29.2413 45.4102C29.0243 45.5711 28.7712 45.6962 28.4638 45.7677C28.1744 45.8392 27.8308 45.8929 27.4692 45.8929C27.1256 45.8929 26.8363 45.8571 26.565 45.8035C26.2938 45.732 26.0406 45.6605 25.8417 45.5711C25.6247 45.4817 25.4439 45.3745 25.2811 45.2672C25.1184 45.1599 24.9918 45.0706 24.9014 44.9812L25.7151 43.855C25.9864 44.0874 26.2757 44.2661 26.5831 44.3913C26.8905 44.5164 27.216 44.57 27.5234 44.57C27.7766 44.57 27.9936 44.5343 28.1744 44.4449C28.3553 44.3555 28.4276 44.2304 28.4276 44.0516C28.4276 43.8729 28.3372 43.7477 28.1744 43.6583C28.0117 43.569 27.7947 43.4796 27.5415 43.4259C27.2883 43.3544 27.0171 43.2829 26.7097 43.2114C26.4204 43.1399 26.1491 43.0327 25.8779 42.8897C25.6247 42.7467 25.4077 42.5679 25.2449 42.3534C25.0822 42.1389 24.9918 41.835 24.9918 41.4774C24.9918 40.9233 25.1907 40.4943 25.6066 40.1904C26.0225 39.8865 26.5831 39.7256 27.2883 39.7256C27.5958 39.7256 27.8851 39.7613 28.1383 39.815C28.3914 39.8686 28.6446 39.9401 28.8435 40.0295C29.0605 40.1189 29.2594 40.2082 29.4222 40.3155C29.603 40.4228 29.7477 40.53 29.8923 40.6373L29.0786 41.7456C28.735 41.4774 28.4095 41.2987 28.1021 41.1914C27.7947 41.0842 27.5053 41.0305 27.2341 41.0305C26.999 41.0305 26.8001 41.0663 26.6735 41.1378C26.5469 41.2451 26.4927 41.3344 26.4927 41.4596Z" fill="#00652E"/>
<path d="M33.328 44.5879C33.9248 44.5879 34.3588 44.3734 34.6662 43.9444H36.2032C36.0043 44.5521 35.6607 45.0348 35.1544 45.3745C34.6481 45.732 34.0513 45.8929 33.328 45.8929C32.8759 45.8929 32.46 45.8214 32.0803 45.6783C31.7005 45.5353 31.375 45.3208 31.1219 45.0527C30.8506 44.7845 30.6517 44.4628 30.507 44.0695C30.3624 43.6941 30.29 43.2651 30.29 42.8003C30.29 42.3355 30.3624 41.9244 30.507 41.5311C30.6517 41.1557 30.8506 40.8339 31.1219 40.5658C31.3931 40.2976 31.7186 40.0831 32.0803 39.9401C32.46 39.7971 32.8759 39.7256 33.328 39.7256C33.7801 39.7256 34.196 39.7971 34.5758 39.9401C34.9555 40.0831 35.2629 40.2976 35.5342 40.5658C35.8054 40.8339 36.0043 41.1557 36.149 41.5311C36.2937 41.9065 36.366 42.3355 36.366 42.8003C36.366 42.8897 36.366 42.9612 36.366 43.0506C36.366 43.1221 36.3479 43.2114 36.3479 43.2829H31.7548C31.8271 43.6941 32.0079 44.0159 32.2792 44.2483C32.5504 44.4806 32.9121 44.5879 33.328 44.5879ZM34.7566 41.978C34.63 41.692 34.4492 41.4774 34.2141 41.3166C33.9609 41.1557 33.6716 41.0842 33.328 41.0842C32.9844 41.0842 32.6951 41.1557 32.46 41.3166C32.2249 41.4774 32.0441 41.692 31.9175 41.978H34.7566Z" fill="#00652E"/>
<defs>
<radialGradient id="paint0_radial_1348_12594" cx="0" cy="0" r="1" gradientUnits="userSpaceOnUse" gradientTransform="translate(20.0384 12.8543) scale(13.2102 13.059)">
<stop stop-color="#00652E"/>
<stop offset="1" stop-color="#F15A29"/>
</radialGradient>
</defs>
</svg>
