<svg width="120" height="24" viewBox="0 38 40 8" fill="none" xmlns="http://www.w3.org/2000/svg">
<path d="M3.32778 39.7434C3.83411 39.7434 4.28618 39.8149 4.7021 39.9579C5.11801 40.1009 5.46159 40.3154 5.76901 40.5836C6.05834 40.8517 6.29342 41.1735 6.45617 41.5668C6.61892 41.9422 6.69125 42.3712 6.69125 42.836V45.8034H5.1361V45.2314C4.97335 45.4101 4.73827 45.571 4.41277 45.714C4.08727 45.8571 3.68944 45.9107 3.21928 45.9107C2.74911 45.9107 2.31512 45.8392 1.93537 45.6962C1.53754 45.5532 1.19396 45.3386 0.922714 45.0705C0.633383 44.8024 0.416385 44.4806 0.253637 44.0873C0.090888 43.7119 0.0185547 43.2829 0.0185547 42.8181C0.0185547 42.3533 0.090888 41.9422 0.253637 41.5489C0.416385 41.1735 0.633383 40.8517 0.922714 40.5836C1.21204 40.3154 1.57371 40.1009 1.97154 39.9579C2.38745 39.8149 2.83953 39.7434 3.32778 39.7434ZM5.0276 42.7466C5.0276 42.1924 4.86485 41.7455 4.55743 41.4416C4.25002 41.1377 3.83411 40.9769 3.30969 40.9769C2.78528 40.9769 2.36937 41.1377 2.06195 41.4416C1.75454 41.7455 1.59179 42.1924 1.59179 42.7466C1.59179 43.3008 1.75454 43.7477 2.06195 44.0516C2.36937 44.3555 2.78528 44.5163 3.30969 44.5163C3.83411 44.5163 4.25002 44.3555 4.55743 44.0516C4.88293 43.7298 5.0276 43.3008 5.0276 42.7466Z" fill="#00652E"/>
<path d="M21.0309 39.7434C21.5372 39.7434 21.9893 39.8149 22.4052 39.9579C22.8211 40.1009 23.1647 40.3154 23.4721 40.5836C23.7615 40.8517 23.9965 41.1735 24.1593 41.5668C24.322 41.9422 24.3944 42.3712 24.3944 42.836V45.8034H22.8392V45.2314C22.6765 45.4101 22.4414 45.571 22.1159 45.714C21.7904 45.8571 21.3926 45.9107 20.9224 45.9107C20.4522 45.9107 20.0182 45.8392 19.6385 45.6962C19.2407 45.5532 18.8971 45.3386 18.6258 45.0705C18.3365 44.8024 18.1195 44.4806 17.9568 44.0873C17.794 43.7119 17.7217 43.2829 17.7217 42.8181C17.7217 42.3533 17.794 41.9422 17.9568 41.5489C18.1195 41.1735 18.3365 40.8517 18.6258 40.5836C18.9152 40.3154 19.2768 40.1009 19.6747 39.9579C20.0906 39.8149 20.5427 39.7434 21.0309 39.7434ZM22.7307 42.7466C22.7307 42.1924 22.568 41.7455 22.2606 41.4416C21.9531 41.1377 21.5372 40.9769 21.0128 40.9769C20.4884 40.9769 20.0725 41.1377 19.7651 41.4416C19.4577 41.7455 19.2949 42.1924 19.2949 42.7466C19.2949 43.3008 19.4577 43.7477 19.7651 44.0516C20.0725 44.3555 20.4884 44.5163 21.0128 44.5163C21.5372 44.5163 21.9531 44.3555 22.2606 44.0516C22.568 43.7298 22.7307 43.3008 22.7307 42.7466Z" fill="#00652E"/>
<path d="M13.1471 40.6015C12.8578 40.3334 12.4961 40.1188 12.0983 39.958C11.6824 39.815 11.2484 39.7256 10.7782 39.7256C10.308 39.7256 9.89213 39.7971 9.54855 39.9401C9.20497 40.0831 8.96989 40.244 8.80714 40.4227V38.4742H7.21582V42.8718C7.21582 43.3544 7.30624 43.8013 7.48707 44.1946C7.6679 44.5879 7.92106 44.9097 8.22848 45.1778C8.53589 45.4459 8.89756 45.6426 9.33155 45.7856C9.76555 45.9286 10.2176 46.0001 10.7059 46.0001C11.2122 46.0001 11.6643 45.9286 12.0802 45.7677C12.4961 45.6247 12.8397 45.4102 13.1471 45.1242C13.4545 44.856 13.6896 44.5164 13.8523 44.141C14.0151 43.7656 14.1055 43.3366 14.1055 42.8718C14.1055 42.407 14.0151 41.978 13.8523 41.5847C13.6715 41.2093 13.4364 40.8875 13.1471 40.6015ZM12.0983 44.141C11.7728 44.4628 11.3569 44.6236 10.8144 44.6236C10.2719 44.6236 9.85597 44.4628 9.53047 44.141C9.20497 43.8192 9.04222 43.3902 9.04222 42.8181C9.04222 42.2461 9.20497 41.7992 9.53047 41.4953C9.85597 41.1735 10.29 41.0127 10.8144 41.0127C11.3569 41.0127 11.7728 41.1735 12.0983 41.4953C12.4238 41.8171 12.5684 42.2461 12.5684 42.8181C12.5865 43.3902 12.4238 43.8192 12.0983 44.141Z" fill="#00652E"/>
<path d="M14.6113 42.5142C14.6113 41.5847 14.8826 40.9054 15.4432 40.4406C16.0037 39.9758 16.7451 39.7434 17.6855 39.7434V41.0841C17.2153 41.0841 16.8356 41.2093 16.5643 41.4416C16.2931 41.674 16.1484 42.0494 16.1484 42.5321V45.8213H14.6113V42.5142Z" fill="#00652E"/>
<path d="M36.9268 43.122C36.9268 44.0516 37.198 44.7309 37.7586 45.1957C38.3192 45.6605 39.0606 45.8928 40.0009 45.8928V44.5521C39.5307 44.5521 39.151 44.427 38.8797 44.1946C38.6085 43.9622 38.4638 43.5868 38.4638 43.1042V38.4742H36.9268V43.122Z" fill="#00652E"/>
<path d="M26.4927 41.4596C26.4927 41.6026 26.5831 41.7098 26.7458 41.7992C26.9086 41.8707 27.1256 41.9601 27.3788 42.0137C27.6319 42.0852 27.9032 42.1567 28.2106 42.2282C28.4999 42.2998 28.7712 42.407 29.0424 42.55C29.2956 42.693 29.5126 42.8718 29.6753 43.1042C29.8381 43.3366 29.9285 43.6405 29.9285 44.0159C29.9285 44.3198 29.8742 44.5879 29.7477 44.8203C29.6211 45.0527 29.4583 45.2493 29.2413 45.4102C29.0243 45.5711 28.7712 45.6962 28.4638 45.7677C28.1744 45.8392 27.8308 45.8929 27.4692 45.8929C27.1256 45.8929 26.8363 45.8571 26.565 45.8035C26.2938 45.732 26.0406 45.6605 25.8417 45.5711C25.6247 45.4817 25.4439 45.3745 25.2811 45.2672C25.1184 45.1599 24.9918 45.0706 24.9014 44.9812L25.7151 43.855C25.9864 44.0874 26.2757 44.2661 26.5831 44.3913C26.8905 44.5164 27.216 44.57 27.5234 44.57C27.7766 44.57 27.9936 44.5343 28.1744 44.4449C28.3553 44.3555 28.4276 44.2304 28.4276 44.0516C28.4276 43.8729 28.3372 43.7477 28.1744 43.6583C28.0117 43.569 27.7947 43.4796 27.5415 43.4259C27.2883 43.3544 27.0171 43.2829 26.7097 43.2114C26.4204 43.1399 26.1491 43.0327 25.8779 42.8897C25.6247 42.7467 25.4077 42.5679 25.2449 42.3534C25.0822 42.1389 24.9918 41.835 24.9918 41.4774C24.9918 40.9233 25.1907 40.4943 25.6066 40.1904C26.0225 39.8865 26.5831 39.7256 27.2883 39.7256C27.5958 39.7256 27.8851 39.7613 28.1383 39.815C28.3914 39.8686 28.6446 39.9401 28.8435 40.0295C29.0605 40.1189 29.2594 40.2082 29.4222 40.3155C29.603 40.4228 29.7477 40.53 29.8923 40.6373L29.0786 41.7456C28.735 41.4774 28.4095 41.2987 28.1021 41.1914C27.7947 41.0842 27.5053 41.0305 27.2341 41.0305C26.999 41.0305 26.8001 41.0663 26.6735 41.1378C26.5469 41.2451 26.4927 41.3344 26.4927 41.4596Z" fill="#00652E"/>
<path d="M33.328 44.5879C33.9248 44.5879 34.3588 44.3734 34.6662 43.9444H36.2032C36.0043 44.5521 35.6607 45.0348 35.1544 45.3745C34.6481 45.732 34.0513 45.8929 33.328 45.8929C32.8759 45.8929 32.46 45.8214 32.0803 45.6783C31.7005 45.5353 31.375 45.3208 31.1219 45.0527C30.8506 44.7845 30.6517 44.4628 30.507 44.0695C30.3624 43.6941 30.29 43.2651 30.29 42.8003C30.29 42.3355 30.3624 41.9244 30.507 41.5311C30.6517 41.1557 30.8506 40.8339 31.1219 40.5658C31.3931 40.2976 31.7186 40.0831 32.0803 39.9401C32.46 39.7971 32.8759 39.7256 33.328 39.7256C33.7801 39.7256 34.196 39.7971 34.5758 39.9401C34.9555 40.0831 35.2629 40.2976 35.5342 40.5658C35.8054 40.8339 36.0043 41.1557 36.149 41.5311C36.2937 41.9065 36.366 42.3355 36.366 42.8003C36.366 42.8897 36.366 42.9612 36.366 43.0506C36.366 43.1221 36.3479 43.2114 36.3479 43.2829H31.7548C31.8271 43.6941 32.0079 44.0159 32.2792 44.2483C32.5504 44.4806 32.9121 44.5879 33.328 44.5879ZM34.7566 41.978C34.63 41.692 34.4492 41.4774 34.2141 41.3166C33.9609 41.1557 33.6716 41.0842 33.328 41.0842C32.9844 41.0842 32.6951 41.1557 32.46 41.3166C32.2249 41.4774 32.0441 41.692 31.9175 41.978H34.7566Z" fill="#00652E"/>
</svg>
